<svg version="1.1" id="Layer_1" xmlns="http://www.w3.org/2000/svg" xmlns:xlink="http://www.w3.org/1999/xlink" x="0px" y="0px"
	 width="100%" viewBox="0 0 1501 1501" enable-background="new 0 0 1501 1501" xml:space="preserve">
<path fill="#FFFFFF" opacity="0" stroke="none" 
	d="
M1356.000000,1502.000000 
	C904.000061,1502.000000 452.500153,1502.000000 1.000182,1502.000000 
	C1.000121,1001.666809 1.000121,501.333679 1.000061,1.000383 
	C501.333099,1.000255 1001.666199,1.000255 1501.999512,1.000128 
	C1501.999634,501.332977 1501.999634,1001.665955 1501.999756,1501.999512 
	C1453.500000,1502.000000 1405.000000,1502.000000 1356.000000,1502.000000 
M555.007751,753.412109 
	C555.962769,770.871033 564.520020,783.728943 579.615234,791.882080 
	C601.541443,803.724792 629.171753,794.616028 640.696533,772.280579 
	C652.117188,750.146912 643.096802,722.454895 620.804138,711.212036 
	C590.373779,695.865173 555.410767,717.780273 555.007751,753.412109 
M538.409363,760.064270 
	C544.560303,742.927063 550.711182,725.789856 557.050537,708.127502 
	C549.648987,708.127502 542.995850,707.971924 536.362427,708.263611 
	C535.091736,708.319519 533.263245,709.896423 532.779419,711.181152 
	C530.673523,716.772400 528.958862,722.511658 527.121277,728.203308 
	C522.673523,741.979614 518.236328,755.759338 513.529846,770.360107 
	C512.790039,768.373230 512.346375,767.306396 511.991821,766.210693 
	C506.213715,748.356018 500.488007,730.484131 494.609772,712.662537 
	C494.061707,711.000916 492.629150,708.418091 491.497223,708.358582 
	C484.094543,707.969727 476.661530,708.158508 468.466888,708.158508 
	C479.042480,737.588257 489.347595,766.265259 499.589111,794.765259 
	C508.693726,794.765259 517.286438,794.765259 525.966675,794.765259 
	C530.077332,783.308838 534.115112,772.055603 538.409363,760.064270 
M715.044312,771.626770 
	C716.400269,756.233521 711.817627,749.281982 694.921082,741.491516 
	C700.117065,736.630249 705.232178,731.900513 710.267517,727.087402 
	C711.304993,726.095703 712.734924,724.831665 712.802429,723.626892 
	C713.086487,718.560791 712.922546,713.469543 712.922546,708.489624 
	C693.755493,708.489624 675.373413,708.489624 656.861877,708.489624 
	C656.861877,714.932129 656.861877,721.019592 656.861877,727.582947 
	C661.769409,727.582947 666.390991,727.582947 671.012573,727.582947 
	C675.574646,727.582947 680.136719,727.582947 685.265320,727.582947 
	C680.996277,732.031311 677.772644,736.360535 673.635010,739.475891 
	C667.331665,744.222046 668.594482,750.171814 669.123779,756.879578 
	C674.203552,756.879578 678.873535,756.595276 683.495117,756.947021 
	C690.215942,757.458374 693.768982,761.238708 693.541931,766.968750 
	C693.291504,773.287292 689.692993,776.278870 682.575562,776.440186 
	C675.515747,776.600098 670.302856,773.275085 666.105957,767.586182 
	C660.683777,772.455261 655.662048,776.964722 650.560852,781.545532 
	C656.375671,790.768982 664.688232,795.143127 674.646301,796.516541 
	C691.858093,798.890320 711.666016,792.716309 715.044312,771.626770 
M1199.155396,772.390137 
	C1199.155396,775.099792 1199.155396,777.809509 1199.155396,781.237366 
	C1198.017578,780.251099 1197.597168,780.000671 1197.328735,779.637756 
	C1180.900146,757.424988 1164.308472,735.328979 1148.205444,712.882568 
	C1144.708618,708.008118 1141.116455,707.385193 1136.118652,708.738098 
	C1136.118652,737.581238 1136.118652,766.178284 1136.118652,794.640381 
	C1138.772949,794.640381 1141.170044,794.640381 1144.039795,794.640381 
	C1144.039795,770.568115 1144.039795,746.880798 1144.039795,722.092529 
	C1145.615356,723.918030 1146.498779,724.818481 1147.243164,725.822205 
	C1163.009155,747.083923 1178.959839,768.213928 1194.361816,789.736389 
	C1197.887085,794.662476 1201.538574,795.938843 1206.946533,794.602112 
	C1206.946533,765.899231 1206.946533,737.176331 1206.946533,708.578125 
	C1204.191040,708.578125 1201.809570,708.578125 1199.104370,708.578125 
	C1199.104370,729.806091 1199.104370,750.613831 1199.155396,772.390137 
M780.456726,708.369263 
	C773.715027,708.369263 766.973328,708.369263 760.330811,708.369263 
	C760.330811,737.711609 760.330811,766.246155 760.330811,794.954163 
	C769.816467,794.954163 778.953918,795.014404 788.090332,794.936584 
	C796.553589,794.864441 804.472473,792.667664 812.002991,788.778625 
	C837.634216,775.541321 840.768921,735.907471 817.631714,718.771851 
	C806.780457,710.735352 794.515808,708.307556 780.456726,708.369263 
M392.677307,745.436829 
	C401.296753,730.136963 409.916229,714.837158 418.535675,699.537292 
	C417.951874,699.172668 417.368103,698.807983 416.784302,698.443359 
	C415.416687,700.460388 414.206757,702.609619 412.648773,704.466980 
	C409.342957,708.408203 405.756134,712.114746 402.473816,716.074402 
	C399.710114,719.408386 397.440430,723.172058 394.522522,726.351257 
	C392.475677,728.581360 389.811798,730.310791 387.239716,731.980774 
	C380.106567,736.612305 372.573120,739.109741 362.953552,734.259033 
	C363.911896,734.259460 364.870239,734.259888 365.828583,734.260254 
	C362.235199,733.983215 359.296906,733.625549 357.121063,732.146301 
	C348.268860,726.127991 342.625977,717.286743 337.031860,708.417358 
	C330.599670,698.219299 324.554840,687.701233 317.251404,678.156433 
	C312.728058,672.244934 306.706421,667.062805 300.418365,663.010193 
	C289.166046,655.757874 276.075928,654.701172 262.997437,654.645081 
	C247.532227,654.578796 232.066391,654.640198 216.600861,654.670959 
	C212.235428,654.679626 211.597275,656.251953 214.217117,660.876343 
	C222.385956,675.295532 230.505936,689.743896 238.834457,704.070679 
	C246.618195,717.460327 254.752548,730.646179 262.536774,744.035583 
	C272.941345,761.932007 283.171265,779.930176 293.449249,797.900024 
	C301.909302,812.691345 310.322266,827.509705 318.771637,842.307129 
	C323.049957,849.799927 330.566132,850.302368 335.622314,843.473022 
	C337.000092,841.612000 338.642883,839.917480 339.818024,837.940857 
	C349.298492,821.994751 358.856598,806.091125 368.071899,789.991882 
	C376.376221,775.484131 384.277222,760.745544 392.677307,745.436829 
M404.014801,663.488892 
	C403.018097,662.609192 402.095123,661.624207 401.013031,660.866455 
	C392.226410,654.713745 383.044739,654.542908 373.811371,659.592590 
	C365.223877,664.288818 360.845886,673.426697 362.105591,683.103699 
	C363.465454,693.550049 370.405396,701.954163 379.749725,704.470398 
	C389.815399,707.180847 401.156616,702.793884 406.756165,694.023865 
	C412.914856,684.378113 412.091217,673.426147 404.014801,663.488892 
M1038.122314,745.606201 
	C1038.392456,751.065002 1037.768921,756.748718 1039.077026,761.946411 
	C1047.947510,797.195190 1084.052612,803.260742 1109.654907,790.106750 
	C1110.699463,789.570068 1111.751099,787.867859 1111.767944,786.693787 
	C1111.927246,775.556885 1111.862793,764.416748 1111.862793,753.093079 
	C1108.964600,753.093079 1106.411377,753.093079 1103.568726,753.093079 
	C1103.568726,761.942322 1103.314819,770.435120 1103.677002,778.901489 
	C1103.855713,783.078003 1102.229614,785.296143 1098.478271,785.914185 
	C1092.438965,786.909302 1086.324829,788.341248 1080.273071,788.206665 
	C1061.162964,787.781555 1045.165039,769.973206 1046.223267,750.993530 
	C1047.428101,729.385376 1063.346680,714.103394 1083.528442,714.900635 
	C1091.984375,715.234619 1099.306641,718.387085 1106.295166,723.203613 
	C1108.163940,720.992310 1109.823120,719.028992 1111.485352,717.062012 
	C1101.209717,708.821289 1087.321045,705.232483 1074.920288,707.364075 
	C1055.940186,710.626587 1042.867432,723.946350 1038.122314,745.606201 
M1232.647461,737.747009 
	C1236.995117,746.351624 1245.525879,748.717590 1253.571289,751.875366 
	C1260.657715,754.656677 1268.156494,756.821228 1274.600952,760.705261 
	C1284.619141,766.743286 1283.567505,780.712402 1273.015259,785.797180 
	C1269.387817,787.545166 1265.080200,788.349609 1261.016724,788.634155 
	C1250.051636,789.401855 1240.935425,785.134033 1233.574341,776.846863 
	C1231.495605,778.782715 1229.694214,780.460266 1227.738159,782.281982 
	C1228.945801,783.675903 1229.843872,784.860168 1230.889160,785.895935 
	C1241.155151,796.068237 1260.637695,799.501038 1274.772949,793.715454 
	C1284.167969,789.870056 1289.429321,782.971863 1289.926147,772.812866 
	C1290.415527,762.811279 1285.270508,756.133606 1276.605835,751.873901 
	C1273.926514,750.556641 1271.146118,749.414612 1268.338745,748.393799 
	C1262.247559,746.179077 1255.810669,744.677734 1250.093506,741.753845 
	C1246.203979,739.764648 1242.001953,736.468201 1240.215454,732.682312 
	C1236.431519,724.664062 1243.102783,716.470276 1253.622070,714.994324 
	C1264.740234,713.434265 1274.343750,716.480652 1282.078857,724.525818 
	C1284.054688,722.755371 1285.883545,721.116577 1288.135864,719.098450 
	C1286.149780,717.263367 1284.508423,715.383362 1282.529541,713.978638 
	C1271.526245,706.167603 1259.372559,705.041992 1246.827393,708.926331 
	C1233.406250,713.082031 1228.021362,724.001221 1232.647461,737.747009 
M936.188354,723.122681 
	C939.502625,717.958923 944.454834,715.658386 950.350830,714.908081 
	C961.133301,713.535950 970.312073,716.813782 978.195374,724.855835 
	C980.139343,722.958069 981.869141,721.269348 983.848816,719.336792 
	C982.335510,717.711121 981.313110,716.414307 980.096497,715.336792 
	C968.824890,705.353882 947.588379,704.010498 935.166931,712.453552 
	C924.437683,719.746216 923.320496,735.649475 933.362366,743.865112 
	C936.877197,746.740723 941.339722,748.612244 945.600464,750.388062 
	C953.112732,753.519226 960.981995,755.834534 968.361694,759.230530 
	C974.400085,762.009216 977.674988,767.202026 977.004211,774.192444 
	C976.353271,780.976746 972.268127,785.360535 966.017517,786.907776 
	C960.960632,788.159546 955.516235,788.575134 950.301331,788.294067 
	C941.795227,787.835754 935.120544,783.114319 929.336670,776.853699 
	C927.222351,778.822937 925.435059,780.487549 923.694580,782.108582 
	C933.857544,796.200562 958.228455,800.867798 973.844055,792.140137 
	C981.725342,787.735291 985.538635,780.860107 985.742371,772.117188 
	C985.947510,763.314697 981.677124,756.615784 973.904541,752.788269 
	C967.671143,749.718750 960.933533,747.682190 954.455505,745.097473 
	C950.145874,743.377930 945.677979,741.888184 941.675110,739.604675 
	C935.350098,735.996277 933.806824,731.075623 936.188354,723.122681 
M885.499084,747.750427 
	C878.522156,747.750427 871.545227,747.750427 864.398499,747.750427 
	C864.398499,736.931702 864.398499,726.561340 864.398499,715.838745 
	C879.731262,715.838745 894.670654,715.838745 909.595276,715.838745 
	C909.595276,713.108154 909.595276,710.749512 909.595276,708.428589 
	C891.584290,708.428589 873.996521,708.428589 856.317627,708.428589 
	C856.317627,737.436279 856.317627,766.121399 856.317627,794.799438 
	C874.318909,794.799438 891.926453,794.799438 909.661865,794.799438 
	C909.661865,792.194458 909.661865,789.826355 909.661865,787.061035 
	C894.384583,787.061035 879.461914,787.061035 864.406372,787.061035 
	C864.406372,776.299988 864.406372,765.948364 864.406372,755.187134 
	C877.913879,755.187134 891.027161,755.187134 904.264099,755.187134 
	C904.264099,752.549805 904.264099,750.333557 904.264099,747.750977 
	C898.116211,747.750977 892.307129,747.750977 885.499084,747.750427 
M1014.847717,776.499268 
	C1014.847717,753.902893 1014.847717,731.306519 1014.847717,708.431335 
	C1011.899536,708.431335 1009.495972,708.431335 1006.872070,708.431335 
	C1006.872070,737.332458 1006.872070,766.032715 1006.872070,794.709900 
	C1009.623169,794.709900 1012.033386,794.709900 1014.847534,794.709900 
	C1014.847534,788.759033 1014.847534,783.128784 1014.847717,776.499268 
z"/>
<path fill="#68686E" opacity="1.000000" stroke="none" 
	d="
M554.998535,752.938721 
	C555.410767,717.780273 590.373779,695.865173 620.804138,711.212036 
	C643.096802,722.454895 652.117188,750.146912 640.696533,772.280579 
	C629.171753,794.616028 601.541443,803.724792 579.615234,791.882080 
	C564.520020,783.728943 555.962769,770.871033 554.998535,752.938721 
M615.456726,767.934937 
	C626.358521,754.293518 622.062988,735.054199 606.969971,729.923462 
	C597.295898,726.634827 586.898743,730.783386 581.869324,739.938904 
	C576.374390,749.941956 578.690247,762.726196 587.287598,769.848267 
	C595.495911,776.648071 606.134644,776.106445 615.456726,767.934937 
z"/>
<path fill="#68696E" opacity="1.000000" stroke="none" 
	d="
M538.281128,760.433350 
	C534.115112,772.055603 530.077332,783.308838 525.966675,794.765259 
	C517.286438,794.765259 508.693726,794.765259 499.589111,794.765259 
	C489.347595,766.265259 479.042480,737.588257 468.466888,708.158508 
	C476.661530,708.158508 484.094543,707.969727 491.497223,708.358582 
	C492.629150,708.418091 494.061707,711.000916 494.609772,712.662537 
	C500.488007,730.484131 506.213715,748.356018 511.991821,766.210693 
	C512.346375,767.306396 512.790039,768.373230 513.529846,770.360107 
	C518.236328,755.759338 522.673523,741.979614 527.121277,728.203308 
	C528.958862,722.511658 530.673523,716.772400 532.779419,711.181152 
	C533.263245,709.896423 535.091736,708.319519 536.362427,708.263611 
	C542.995850,707.971924 549.648987,708.127502 557.050537,708.127502 
	C550.711182,725.789856 544.560303,742.927063 538.281128,760.433350 
z"/>
<path fill="#68696E" opacity="1.000000" stroke="none" 
	d="
M715.013062,772.044861 
	C711.666016,792.716309 691.858093,798.890320 674.646301,796.516541 
	C664.688232,795.143127 656.375671,790.768982 650.560852,781.545532 
	C655.662048,776.964722 660.683777,772.455261 666.105957,767.586182 
	C670.302856,773.275085 675.515747,776.600098 682.575562,776.440186 
	C689.692993,776.278870 693.291504,773.287292 693.541931,766.968750 
	C693.768982,761.238708 690.215942,757.458374 683.495117,756.947021 
	C678.873535,756.595276 674.203552,756.879578 669.123779,756.879578 
	C668.594482,750.171814 667.331665,744.222046 673.635010,739.475891 
	C677.772644,736.360535 680.996277,732.031311 685.265320,727.582947 
	C680.136719,727.582947 675.574646,727.582947 671.012573,727.582947 
	C666.390991,727.582947 661.769409,727.582947 656.861877,727.582947 
	C656.861877,721.019592 656.861877,714.932129 656.861877,708.489624 
	C675.373413,708.489624 693.755493,708.489624 712.922546,708.489624 
	C712.922546,713.469543 713.086487,718.560791 712.802429,723.626892 
	C712.734924,724.831665 711.304993,726.095703 710.267517,727.087402 
	C705.232178,731.900513 700.117065,736.630249 694.921082,741.491516 
	C711.817627,749.281982 716.400269,756.233521 715.013062,772.044861 
z"/>
<path fill="#6A6B70" opacity="1.000000" stroke="none" 
	d="
M1199.129883,771.905884 
	C1199.104370,750.613831 1199.104370,729.806091 1199.104370,708.578125 
	C1201.809570,708.578125 1204.191040,708.578125 1206.946533,708.578125 
	C1206.946533,737.176331 1206.946533,765.899231 1206.946533,794.602112 
	C1201.538574,795.938843 1197.887085,794.662476 1194.361816,789.736389 
	C1178.959839,768.213928 1163.009155,747.083923 1147.243164,725.822205 
	C1146.498779,724.818481 1145.615356,723.918030 1144.039795,722.092529 
	C1144.039795,746.880798 1144.039795,770.568115 1144.039795,794.640381 
	C1141.170044,794.640381 1138.772949,794.640381 1136.118652,794.640381 
	C1136.118652,766.178284 1136.118652,737.581238 1136.118652,708.738098 
	C1141.116455,707.385193 1144.708618,708.008118 1148.205444,712.882568 
	C1164.308472,735.328979 1180.900146,757.424988 1197.328735,779.637756 
	C1197.597168,780.000671 1198.017578,780.251099 1199.155396,781.237366 
	C1199.155396,777.809509 1199.155396,775.099792 1199.129883,771.905884 
z"/>
<path fill="#6A6B70" opacity="1.000000" stroke="none" 
	d="
M780.947510,708.369507 
	C794.515808,708.307556 806.780457,710.735352 817.631714,718.771851 
	C840.768921,735.907471 837.634216,775.541321 812.002991,788.778625 
	C804.472473,792.667664 796.553589,794.864441 788.090332,794.936584 
	C778.953918,795.014404 769.816467,794.954163 760.330811,794.954163 
	C760.330811,766.246155 760.330811,737.711609 760.330811,708.369263 
	C766.973328,708.369263 773.715027,708.369263 780.947510,708.369507 
M782.380859,716.012329 
	C777.786743,716.012329 773.192627,716.012329 768.526978,716.012329 
	C768.526978,740.093750 768.526978,763.462891 768.526978,788.094360 
	C779.374634,787.054688 790.082947,787.394836 800.033081,784.812988 
	C827.515808,777.681824 830.573975,744.533447 816.316711,728.596375 
	C807.482788,718.721619 795.815002,716.315002 782.380859,716.012329 
z"/>
<path fill="#F3D34B" opacity="1.000000" stroke="none" 
	d="
M392.516724,745.772766 
	C384.277222,760.745544 376.376221,775.484131 368.071899,789.991882 
	C358.856598,806.091125 349.298492,821.994751 339.818024,837.940857 
	C338.642883,839.917480 337.000092,841.612000 335.622314,843.473022 
	C330.566132,850.302368 323.049957,849.799927 318.771637,842.307129 
	C310.322266,827.509705 301.909302,812.691345 293.449249,797.900024 
	C283.171265,779.930176 272.941345,761.932007 262.536774,744.035583 
	C254.752548,730.646179 246.618195,717.460327 238.834457,704.070679 
	C230.505936,689.743896 222.385956,675.295532 214.217117,660.876343 
	C211.597275,656.251953 212.235428,654.679626 216.600861,654.670959 
	C232.066391,654.640198 247.532227,654.578796 262.997437,654.645081 
	C276.075928,654.701172 289.166046,655.757874 300.418365,663.010193 
	C306.706421,667.062805 312.728058,672.244934 317.251404,678.156433 
	C324.554840,687.701233 330.599670,698.219299 337.031860,708.417358 
	C342.625977,717.286743 348.268860,726.127991 357.121063,732.146301 
	C359.296906,733.625549 362.235199,733.983215 365.828583,734.260254 
	C364.870239,734.259888 363.911896,734.259460 362.953552,734.259033 
	C372.573120,739.109741 380.106567,736.612305 387.239716,731.980774 
	C389.811798,730.310791 392.475677,728.581360 394.522522,726.351257 
	C397.440430,723.172058 399.710114,719.408386 402.473816,716.074402 
	C405.756134,712.114746 409.342957,708.408203 412.648773,704.466980 
	C414.206757,702.609619 415.416687,700.460388 416.784302,698.443359 
	C417.368103,698.807983 417.951874,699.172668 418.535675,699.537292 
	C409.916229,714.837158 401.296753,730.136963 392.516724,745.772766 
M216.206940,659.211487 
	C217.976517,662.567749 219.595535,666.014771 221.552094,669.258240 
	C224.255920,673.740479 227.427109,677.947632 230.022827,682.487122 
	C237.483459,695.534790 244.650192,708.750671 252.129791,721.787170 
	C260.339325,736.095886 268.868286,750.221497 277.069031,764.535156 
	C282.897400,774.708191 288.282196,785.135254 294.098358,795.315552 
	C302.618744,810.229309 311.425323,824.979492 319.951263,839.890137 
	C323.503479,846.102539 329.505432,847.468140 333.720154,841.659119 
	C339.797180,833.283325 344.877808,824.166138 350.136505,815.220154 
	C355.665222,805.814819 360.855743,796.211365 366.277679,786.742432 
	C376.117798,769.557556 386.009247,752.401978 395.904480,735.248718 
	C398.100830,731.441406 400.401825,727.694458 402.654663,723.919678 
	C402.287109,723.566833 401.919586,723.213928 401.552063,722.861084 
	C400.477905,723.605713 399.290192,724.230164 398.350891,725.117615 
	C395.593658,727.722412 393.034454,730.541809 390.220337,733.080505 
	C379.608795,742.653687 360.516846,741.556702 350.890137,731.221313 
	C339.711609,719.219788 332.826660,704.417542 323.913361,690.939758 
	C319.937469,684.927917 316.257416,678.438721 311.141663,673.519531 
	C299.478943,662.304993 284.743683,657.492004 268.790466,657.058777 
	C252.979065,656.629456 237.146225,656.934509 221.323730,657.047668 
	C219.654877,657.059631 217.992325,657.948792 216.206940,659.211487 
M404.517059,718.566467 
	C404.453033,718.815857 404.388977,719.065308 404.324951,719.314697 
	C404.485168,719.152405 404.645355,718.990112 404.517059,718.566467 
M403.567017,722.467834 
	C403.567017,722.467834 403.398224,722.356873 403.398224,722.356873 
	C403.398224,722.356873 403.411285,722.558777 403.567017,722.467834 
z"/>
<path fill="#043535" opacity="1.000000" stroke="none" 
	d="
M404.257141,663.752319 
	C412.091217,673.426147 412.914856,684.378113 406.756165,694.023865 
	C401.156616,702.793884 389.815399,707.180847 379.749725,704.470398 
	C370.405396,701.954163 363.465454,693.550049 362.105591,683.103699 
	C360.845886,673.426697 365.223877,664.288818 373.811371,659.592590 
	C383.044739,654.542908 392.226410,654.713745 401.013031,660.866455 
	C402.095123,661.624207 403.018097,662.609192 404.257141,663.752319 
z"/>
<path fill="#6A6B70" opacity="1.000000" stroke="none" 
	d="
M1038.171631,745.181641 
	C1042.867432,723.946350 1055.940186,710.626587 1074.920288,707.364075 
	C1087.321045,705.232483 1101.209717,708.821289 1111.485352,717.062012 
	C1109.823120,719.028992 1108.163940,720.992310 1106.295166,723.203613 
	C1099.306641,718.387085 1091.984375,715.234619 1083.528442,714.900635 
	C1063.346680,714.103394 1047.428101,729.385376 1046.223267,750.993530 
	C1045.165039,769.973206 1061.162964,787.781555 1080.273071,788.206665 
	C1086.324829,788.341248 1092.438965,786.909302 1098.478271,785.914185 
	C1102.229614,785.296143 1103.855713,783.078003 1103.677002,778.901489 
	C1103.314819,770.435120 1103.568726,761.942322 1103.568726,753.093079 
	C1106.411377,753.093079 1108.964600,753.093079 1111.862793,753.093079 
	C1111.862793,764.416748 1111.927246,775.556885 1111.767944,786.693787 
	C1111.751099,787.867859 1110.699463,789.570068 1109.654907,790.106750 
	C1084.052612,803.260742 1047.947510,797.195190 1039.077026,761.946411 
	C1037.768921,756.748718 1038.392456,751.065002 1038.171631,745.181641 
z"/>
<path fill="#6A6B70" opacity="1.000000" stroke="none" 
	d="
M1232.473633,737.411621 
	C1228.021362,724.001221 1233.406250,713.082031 1246.827393,708.926331 
	C1259.372559,705.041992 1271.526245,706.167603 1282.529541,713.978638 
	C1284.508423,715.383362 1286.149780,717.263367 1288.135864,719.098450 
	C1285.883545,721.116577 1284.054688,722.755371 1282.078857,724.525818 
	C1274.343750,716.480652 1264.740234,713.434265 1253.622070,714.994324 
	C1243.102783,716.470276 1236.431519,724.664062 1240.215454,732.682312 
	C1242.001953,736.468201 1246.203979,739.764648 1250.093506,741.753845 
	C1255.810669,744.677734 1262.247559,746.179077 1268.338745,748.393799 
	C1271.146118,749.414612 1273.926514,750.556641 1276.605835,751.873901 
	C1285.270508,756.133606 1290.415527,762.811279 1289.926147,772.812866 
	C1289.429321,782.971863 1284.167969,789.870056 1274.772949,793.715454 
	C1260.637695,799.501038 1241.155151,796.068237 1230.889160,785.895935 
	C1229.843872,784.860168 1228.945801,783.675903 1227.738159,782.281982 
	C1229.694214,780.460266 1231.495605,778.782715 1233.574341,776.846863 
	C1240.935425,785.134033 1250.051636,789.401855 1261.016724,788.634155 
	C1265.080200,788.349609 1269.387817,787.545166 1273.015259,785.797180 
	C1283.567505,780.712402 1284.619141,766.743286 1274.600952,760.705261 
	C1268.156494,756.821228 1260.657715,754.656677 1253.571289,751.875366 
	C1245.525879,748.717590 1236.995117,746.351624 1232.473633,737.411621 
z"/>
<path fill="#6A6B70" opacity="1.000000" stroke="none" 
	d="
M936.056335,723.492065 
	C933.806824,731.075623 935.350098,735.996277 941.675110,739.604675 
	C945.677979,741.888184 950.145874,743.377930 954.455505,745.097473 
	C960.933533,747.682190 967.671143,749.718750 973.904541,752.788269 
	C981.677124,756.615784 985.947510,763.314697 985.742371,772.117188 
	C985.538635,780.860107 981.725342,787.735291 973.844055,792.140137 
	C958.228455,800.867798 933.857544,796.200562 923.694580,782.108582 
	C925.435059,780.487549 927.222351,778.822937 929.336670,776.853699 
	C935.120544,783.114319 941.795227,787.835754 950.301331,788.294067 
	C955.516235,788.575134 960.960632,788.159546 966.017517,786.907776 
	C972.268127,785.360535 976.353271,780.976746 977.004211,774.192444 
	C977.674988,767.202026 974.400085,762.009216 968.361694,759.230530 
	C960.981995,755.834534 953.112732,753.519226 945.600464,750.388062 
	C941.339722,748.612244 936.877197,746.740723 933.362366,743.865112 
	C923.320496,735.649475 924.437683,719.746216 935.166931,712.453552 
	C947.588379,704.010498 968.824890,705.353882 980.096497,715.336792 
	C981.313110,716.414307 982.335510,717.711121 983.848816,719.336792 
	C981.869141,721.269348 980.139343,722.958069 978.195374,724.855835 
	C970.312073,716.813782 961.133301,713.535950 950.350830,714.908081 
	C944.454834,715.658386 939.502625,717.958923 936.056335,723.492065 
z"/>
<path fill="#68696E" opacity="1.000000" stroke="none" 
	d="
M885.998535,747.750732 
	C892.307129,747.750977 898.116211,747.750977 904.264099,747.750977 
	C904.264099,750.333557 904.264099,752.549805 904.264099,755.187134 
	C891.027161,755.187134 877.913879,755.187134 864.406372,755.187134 
	C864.406372,765.948364 864.406372,776.299988 864.406372,787.061035 
	C879.461914,787.061035 894.384583,787.061035 909.661865,787.061035 
	C909.661865,789.826355 909.661865,792.194458 909.661865,794.799438 
	C891.926453,794.799438 874.318909,794.799438 856.317627,794.799438 
	C856.317627,766.121399 856.317627,737.436279 856.317627,708.428589 
	C873.996521,708.428589 891.584290,708.428589 909.595276,708.428589 
	C909.595276,710.749512 909.595276,713.108154 909.595276,715.838745 
	C894.670654,715.838745 879.731262,715.838745 864.398499,715.838745 
	C864.398499,726.561340 864.398499,736.931702 864.398499,747.750427 
	C871.545227,747.750427 878.522156,747.750427 885.998535,747.750732 
z"/>
<path fill="#6A6B70" opacity="1.000000" stroke="none" 
	d="
M1014.847656,776.998901 
	C1014.847534,783.128784 1014.847534,788.759033 1014.847534,794.709900 
	C1012.033386,794.709900 1009.623169,794.709900 1006.872070,794.709900 
	C1006.872070,766.032715 1006.872070,737.332458 1006.872070,708.431335 
	C1009.495972,708.431335 1011.899536,708.431335 1014.847717,708.431335 
	C1014.847717,731.306519 1014.847717,753.902893 1014.847656,776.998901 
z"/>
<path fill="#FDFDFE" opacity="1.000000" stroke="none" 
	d="
M615.195312,768.187866 
	C606.134644,776.106445 595.495911,776.648071 587.287598,769.848267 
	C578.690247,762.726196 576.374390,749.941956 581.869324,739.938904 
	C586.898743,730.783386 597.295898,726.634827 606.969971,729.923462 
	C622.062988,735.054199 626.358521,754.293518 615.195312,768.187866 
z"/>
<path fill="#FDFDFE" opacity="1.000000" stroke="none" 
	d="
M782.858826,716.012512 
	C795.815002,716.315002 807.482788,718.721619 816.316711,728.596375 
	C830.573975,744.533447 827.515808,777.681824 800.033081,784.812988 
	C790.082947,787.394836 779.374634,787.054688 768.526978,788.094360 
	C768.526978,763.462891 768.526978,740.093750 768.526978,716.012329 
	C773.192627,716.012329 777.786743,716.012329 782.858826,716.012512 
z"/>
<path fill="#FECC04" opacity="1.000000" stroke="none" 
	d="
M216.266907,658.821289 
	C217.992325,657.948792 219.654877,657.059631 221.323730,657.047668 
	C237.146225,656.934509 252.979065,656.629456 268.790466,657.058777 
	C284.743683,657.492004 299.478943,662.304993 311.141663,673.519531 
	C316.257416,678.438721 319.937469,684.927917 323.913361,690.939758 
	C332.826660,704.417542 339.711609,719.219788 350.890137,731.221313 
	C360.516846,741.556702 379.608795,742.653687 390.220337,733.080505 
	C393.034454,730.541809 395.593658,727.722412 398.350891,725.117615 
	C399.290192,724.230164 400.477905,723.605713 401.552063,722.861084 
	C401.919586,723.213928 402.287109,723.566833 402.654663,723.919678 
	C400.401825,727.694458 398.100830,731.441406 395.904480,735.248718 
	C386.009247,752.401978 376.117798,769.557556 366.277679,786.742432 
	C360.855743,796.211365 355.665222,805.814819 350.136505,815.220154 
	C344.877808,824.166138 339.797180,833.283325 333.720154,841.659119 
	C329.505432,847.468140 323.503479,846.102539 319.951263,839.890137 
	C311.425323,824.979492 302.618744,810.229309 294.098358,795.315552 
	C288.282196,785.135254 282.897400,774.708191 277.069031,764.535156 
	C268.868286,750.221497 260.339325,736.095886 252.129791,721.787170 
	C244.650192,708.750671 237.483459,695.534790 230.022827,682.487122 
	C227.427109,677.947632 224.255920,673.740479 221.552094,669.258240 
	C219.595535,666.014771 217.976517,662.567749 216.266907,658.821289 
z"/>
<path fill="#FECC04" opacity="1.000000" stroke="none" 
	d="
M404.661316,718.697144 
	C404.645355,718.990112 404.485168,719.152405 404.324951,719.314697 
	C404.388977,719.065308 404.453033,718.815857 404.661316,718.697144 
z"/>
<path fill="#FECC04" opacity="1.000000" stroke="none" 
	d="
M403.489136,722.513306 
	C403.411285,722.558777 403.398224,722.356873 403.398224,722.356873 
	C403.398224,722.356873 403.567017,722.467834 403.489136,722.513306 
z"/>
</svg>