<?xml version="1.0" encoding="UTF-8"?>
<!DOCTYPE svg PUBLIC "-//W3C//DTD SVG 1.1//EN" "http://www.w3.org/Graphics/SVG/1.1/DTD/svg11.dtd">
<!-- Creator: CorelDRAW X8 -->
<svg xmlns="http://www.w3.org/2000/svg" xml:space="preserve" width="297mm" height="210mm" version="1.1" style="shape-rendering:geometricPrecision; text-rendering:geometricPrecision; image-rendering:optimizeQuality; fill-rule:evenodd; clip-rule:evenodd"
viewBox="0 0 29700 21000"
 xmlns:xlink="http://www.w3.org/1999/xlink">
 <defs>
  <style type="text/css">
   <![CDATA[
    .fil2 {fill:#023433}
    .fil1 {fill:#66686D}
    .fil3 {fill:#ECD447}
    .fil0 {fill:#FDCD02}
   ]]>
  </style>
 </defs>
 <g id="Layer_x0020_1">
  <metadata id="CorelCorpID_0Corel-Layer"/>
  <path class="fil0" d="M6711 9198c35,-139 48,-127 71,-267l-148 60c-119,-5 -275,236 -660,134 -813,-217 -807,-1793 -2164,-2050 -263,-50 -1440,-75 -1621,7 -22,45 -18,-3 -16,78l2174 3783c460,820 608,1337 1004,675 254,-423 1337,-2247 1360,-2420z"/>
  <path class="fil1" d="M11815 8932c726,-190 924,921 304,1111 -742,227 -979,-935 -304,-1111zm-995 783c94,524 663,1034 1341,907 1501,-282 1068,-2554 -434,-2260 -547,107 -1033,655 -907,1353z"/>
  <path class="fil1" d="M10068 10585c123,-429 741,-1946 762,-2195l-558 1c-157,334 -401,1149 -497,1525l-291 -751c-77,-235 -161,-560 -254,-775l-598 -1c20,201 645,1865 763,2198l673 -2z"/>
  <path class="fil1" d="M14382 9219c395,-449 468,-257 412,-830l-1401 0 -1 484 715 10c-184,316 -425,154 -411,720 242,19 800,-18 594,396 -166,334 -617,-40 -671,-80 -145,97 -247,184 -374,329 206,438 996,530 1397,185 161,-138 292,-430 209,-732 -91,-330 -281,-287 -469,-482z"/>
  <path class="fil1" d="M25756 8743c458,572 880,1212 1300,1746 102,129 104,112 307,88l-8 -2184 -197 5 -8 1824c-48,-36 -24,-15 -68,-60 -1,-2 -50,-59 -55,-65 -40,-51 -58,-80 -96,-131l-904 -1229c-244,-323 -200,-365 -467,-339 -32,257 -44,2068 22,2187l163 2 11 -1844z"/>
  <path class="fil1" d="M16227 10385l-7 -1793c766,-56 1416,132 1425,891 9,772 -647,970 -1418,902zm-213 205c503,-8 917,59 1324,-166 287,-159 530,-464 527,-938 -7,-1148 -1191,-1094 -1863,-1088l12 2192z"/>
  <path class="fil2" d="M7106 7886c269,-831 -939,-1109 -1164,-437 -282,843 914,1210 1164,437z"/>
  <path class="fil1" d="M24723 10303c-722,355 -1501,-96 -1443,-895 29,-403 267,-648 533,-775 458,-219 711,30 998,121l98 -144c-273,-268 -836,-350 -1249,-132 -294,154 -601,535 -605,1008 -5,499 298,855 601,1012 433,226 892,131 1278,-55 1,-170 32,-802 -37,-927l-165 3 -9 784z"/>
  <path class="fil1" d="M21663 8648c-249,-305 -872,-416 -1241,-131 -206,160 -445,684 363,963 185,64 453,142 588,253 187,155 190,429 5,579 -546,441 -1127,-365 -1186,-62 -29,145 332,310 506,349 1024,224 1339,-762 714,-1096 -310,-165 -1079,-225 -951,-681 58,-205 292,-285 541,-270 321,19 400,192 570,237 40,-53 57,-65 91,-141z"/>
  <path class="fil1" d="M27905 10286c213,304 803,460 1234,241 410,-209 446,-778 5,-1022 -307,-169 -1083,-226 -957,-690 52,-191 313,-292 597,-258 338,42 374,269 583,181 98,-496 -1615,-589 -1395,306 148,599 1672,491 1211,1184 -110,165 -371,228 -616,196 -300,-38 -388,-173 -546,-276 -80,68 -67,32 -116,138z"/>
  <path class="fil1" d="M18637 10379l12 -796 1019 -3 -10 -190 -1009 -2 -6 -788c55,-39 -11,-28 118,-47 18,-2 127,0 153,0 201,2 750,25 877,-19 -17,-182 -18,-132 -265,-127l-1067 4 1 2158c237,9 483,3 722,3 664,-1 597,67 605,-133l-873 -7c-238,3 -225,13 -277,-53z"/>
  <path class="fil1" d="M22280 8395c-36,284 -65,2049 26,2191l169 4 -17 -2203 -178 8z"/>
  <path class="fil3" d="M6634 8991l148 -60c-23,140 -36,128 -71,267 152,-113 447,-693 476,-829 -107,52 -479,480 -553,622z"/>
 </g>
</svg>
